# xmcd CD database file
#
# Track frame offsets:
#	150
#	14085
#	32202
#	44732
#	59020
#	73585
#	84182
#	101607
#	116552
#	130982
#	149540
#
# Disc length: 2166 seconds
#
# Revision: 2
# Processed by: cddbd v1.5.2PL0 Copyright (c) Steve Scherf et al.
# Submitted via: CDex 1.70beta2
#
DISCID=a608740b
DTITLE=Brent McAthey - Waitin' For The Sun
DYEAR=1900
DGENRE=Country
TTITLE0=Edge Of Town
TTITLE1=Roots
TTITLE2=Will She Remember
TTITLE3=I Can't Let Her See Me Like This
TTITLE4=Redneck Rock n' Roll
TTITLE5=Raised On A Gravel Road
TTITLE6=She Wants To Fly High Again
TTITLE7=What's Come Over You
TTITLE8=Did I Open My Eyes
TTITLE9=Wait For The Sun
TTITLE10=As Far As I Can See
EXTD=
EXTT0=
EXTT1=
EXTT2=
EXTT3=
EXTT4=
EXTT5=
EXTT6=
EXTT7=
EXTT8=
EXTT9=
EXTT10=
PLAYORDER=
